<?xml version="1.0" encoding="UTF-8"?>
<svg id="SVGDoc" width="42" height="48" xmlns="http://www.w3.org/2000/svg" version="1.1" xmlns:xlink="http://www.w3.org/1999/xlink" xmlns:avocode="https://avocode.com/" viewBox="0 0 42 48"><defs></defs><desc>Generated with Avocode.</desc><g><g><title>Слой_x0020_1</title><g><title>Path 49</title><path d="M20.12547,11.68098l0,0l0.87449,-0.87448l-0.87449,-0.87493l-0.87493,0.87493l0.87492,0.87448zM20.12547,11.68098l0,0l-0.00001,0l-0.87492,0.87449l0.87493,0.87493l0.87449,-0.87493zM21.8749,11.68098l0,0l0.87448,-0.87448l-0.87449,-0.87493l-0.87493,0.87493l0.87492,0.87448zM21.87491,11.68098l0,0l-0.00001,0l-0.87492,0.87449l0.87493,0.87493l0.87449,-0.87493zM2.40191,27.47653c0,-5.30647 0,-10.6125 0,-15.91854c0.2079,0 0.41624,0 0.62414,0c0.63158,2.89615 1.17868,5.80981 1.82339,8.7029v15.6288c-0.06696,0 -0.13436,0 -0.20133,0c-1.26578,-2.24838 -1.90611,-6.00765 -2.24619,-8.41359zM8.21217,37.72621l-1.46361,6.09036v-6.09036zM35.25137,2.44981v17.44737h-28.50281v-17.44737zM35.25094,28.88194c0,2.31535 0,4.63025 0,6.94516h-28.50238v-6.94516zM35.25137,21.79672v5.18611h-28.50281v-5.18611zM37.15048,20.26001c0.64514,-2.89353 1.19225,-5.80719 1.82339,-8.7029c0.20789,0 0.41623,0 0.62413,0c0,5.30604 0,10.61251 0,15.91855c-0.34008,2.40595 -0.98041,6.16521 -2.24619,8.41359c-0.06696,0 -0.13436,0 -0.20133,0c0,-5.20931 0,-10.4195 0,-15.62924zM35.25137,43.81657l-1.46361,-6.09036h1.46361zM0.50235,27.54263c0,0.04639 0.00262,0.08622 0.00919,0.13218c0.40968,2.91409 1.16162,7.19901 2.81212,9.68899c0.18164,0.27355 0.46351,0.42499 0.79177,0.42499h0.73356v8.71122c0,0.52302 0.42674,0.94977 0.94977,0.94977h1.28154c0.44468,0 0.81978,-0.29587 0.92351,-0.72787l2.16172,-8.9957h21.66883l2.16172,8.9957c0.10417,0.43243 0.47926,0.72787 0.92351,0.72787h1.28154c0.52303,0 0.94977,-0.42675 0.94977,-0.94977v-8.71122h0.734c0.32782,0 0.61012,-0.15144 0.79133,-0.42499c1.6505,-2.48998 2.40244,-6.77489 2.81211,-9.68899c0.00657,-0.04595 0.00919,-0.08578 0.00919,-0.13218c0,-5.6448 0,-11.28961 0,-16.93441c0,-0.52303 -0.42674,-0.94977 -0.94977,-0.94977c-0.77907,0 -1.55771,0 -2.33679,0c-0.4495,0 -0.82853,0.30331 -0.92657,0.74231c-0.04508,0.2009 -0.08929,0.40223 -0.1335,0.60357v-9.50429c0,-0.52303 -0.42674,-0.94977 -0.94977,-0.94977h-30.40192c-0.52303,0 -0.94977,0.42674 -0.94977,0.94977v9.50429c-0.0442,-0.20134 -0.08841,-0.40224 -0.13349,-0.60357c-0.09805,-0.439 -0.47664,-0.74231 -0.92658,-0.74231c-0.77907,0 -1.55771,0 -2.33679,0c-0.52303,0 -0.94977,0.42674 -0.94977,0.94977c0,5.64481 0,11.28961 0,16.93441z" fill="#969696" fill-opacity="1"></path></g></g></g></svg>