<?xml version="1.0" encoding="UTF-8"?>
<svg id="SVGDoc" width="79" height="48" xmlns="http://www.w3.org/2000/svg" version="1.1" xmlns:xlink="http://www.w3.org/1999/xlink" xmlns:avocode="https://avocode.com/" viewBox="0 0 79 48"><defs></defs><desc>Generated with Avocode.</desc><g><g><title>Unknown</title><path d="M70.80818,41.00983h1.5838v3.95938c0,0.43735 -0.32512,0.76251 -0.7625,0.76251h-0.05881c-0.43738,0 -0.7625,-0.32513 -0.7625,-0.76251zM6.17003,41.00983h1.5838v3.95938c0,0.43735 -0.32512,0.76251 -0.76248,0.76251h-0.05884c-0.43735,0 -0.7625,-0.32513 -0.7625,-0.76251zM2.85609,29.57181h73.29015v9.26749h-73.29015zM49.57401,18.80896h8.35867c1.27725,0 2.28745,1.01019 2.28745,2.28745v3.02045c0,1.27728 -1.01019,2.25812 -2.28745,2.25812h-8.35867c-1.27727,0 -2.28746,-0.98074 -2.28746,-2.25812v-3.02045c0,-1.27725 1.01019,-2.28745 2.28746,-2.28745zM21.42038,18.80896h8.35869c1.27725,0 2.28745,1.01019 2.28745,2.28745v3.02045c0,1.27728 -1.01019,2.25812 -2.28745,2.25812h-8.35869c-1.27724,0 -2.28743,-0.98074 -2.28743,-2.25812v-3.02045c0,-1.27725 1.01019,-2.28745 2.28743,-2.28745zM61.30609,2.29767c3.68153,0 6.59837,2.91763 6.59837,6.59836v17.09808c0,0.49387 -0.07585,0.97534 -0.17572,1.43671h-6.86232c0.9142,-0.81281 1.49553,-2.00189 1.49553,-3.31396v-3.02045c0,-2.43607 -1.99255,-4.42865 -4.42863,-4.42865h-8.35869c-2.43607,0 -4.42863,1.99258 -4.42863,4.42865v3.02045c0,1.3121 0.58134,2.5011 1.49554,3.31396h-13.93056c0.91422,-0.81281 1.49556,-2.00189 1.49556,-3.31396v-3.02045c0,-2.43607 -1.99257,-4.42865 -4.42863,-4.42865h-8.35869c-2.43608,0 -4.42865,1.99258 -4.42865,4.42865v3.02045c0,1.3121 0.58134,2.5011 1.49554,3.31396h-7.21446c-0.09987,-0.46213 -0.17572,-0.9436 -0.17572,-1.43671v-17.09808c0,-3.68155 2.91762,-6.59836 6.59837,-6.59836zM17.69543,0.12714c-4.83963,0 -8.76889,3.92926 -8.76889,8.76889v17.09808c0,0.48926 0.04025,0.96918 0.11766,1.43671h-7.27333l-0.00078,0.00079c-0.06812,-0.00699 -0.13701,-0.00699 -0.20514,0c-0.50859,0.09518 -0.87704,0.53796 -0.87936,1.05585v11.43723c-0.00154,0.28873 0.11223,0.56586 0.31584,0.76944c0.20357,0.20358 0.4807,0.31738 0.76866,0.31586h2.22859v3.95938c0,1.59616 1.33685,2.90353 2.93307,2.90353h0.05882c1.59618,0 2.90355,-1.30743 2.90355,-2.90353v-3.95938h58.74269v3.95938c0,1.59616 1.33684,2.90353 2.93306,2.90353h0.05884c1.59618,0 2.90355,-1.30743 2.90355,-2.90353v-3.95938h2.69691c0.2887,0.00153 0.56509,-0.11224 0.76944,-0.31586c0.20358,-0.20358 0.31738,-0.48071 0.31586,-0.76944v-11.43723c-0.01242,-0.58908 -0.49545,-1.05899 -1.0853,-1.05585h-7.27336c0.07742,-0.46756 0.11768,-0.94748 0.11768,-1.43671v-17.09811c0,-4.8396 -3.92926,-8.76886 -8.76891,-8.76886h-43.61064z" fill="#969696" fill-opacity="1"></path></g></g></svg>