<?xml version="1.0" encoding="UTF-8"?>
<svg id="SVGDoc" width="28" height="48" xmlns="http://www.w3.org/2000/svg" version="1.1" xmlns:xlink="http://www.w3.org/1999/xlink" xmlns:avocode="https://avocode.com/" viewBox="0 0 28 48"><defs></defs><desc>Generated with Avocode.</desc><g><g><title>Слой_x0020_1</title><g><title>Path 50</title><path d="M10.84851,22.13833v-12.56268h-2.51497v12.56268zM15.25674,22.13833v-12.56268h-2.51497v12.56268zM19.66498,22.13833v-12.56268h-2.51497v12.56268zM6.44004,22.13833v-12.56268h-4.11217c-0.52127,0 -0.94663,-0.42656 -0.94663,-0.94973c0,-2.37517 0,-4.75034 0,-7.12527c0,-0.28509 0.11165,-0.53033 0.32636,-0.71713c0.21447,-0.1868 0.47236,-0.26314 0.75363,-0.22282c7.66872,1.09383 15.41235,1.02035 23.08466,-0.00119c0.28008,-0.03722 0.53582,0.04032 0.74838,0.22712c0.21281,0.1868 0.32302,0.43085 0.32302,0.71427c0,2.37517 0,4.75034 0,7.12527c0,0.52318 -0.42512,0.94973 -0.94663,0.94973h-4.11194v12.56268h5.01395c0.52151,0 0.94663,0.42656 0.94663,0.94973v3.57779c0,0.52294 -0.42512,0.9495 -0.94663,0.9495h-1.79092l2.72777,18.74727c0.04127,0.2827 -0.03436,0.54226 -0.22068,0.7584c-0.18608,0.2159 -0.43133,0.32851 -0.71594,0.32851h-1.27729c-0.44469,0 -0.81924,-0.2975 -0.92134,-0.73169l-4.49197,-19.1025h-11.76443l-4.49197,19.1025c-0.10211,0.43395 -0.47689,0.73169 -0.92134,0.73169h-1.27729c-0.28485,0 -0.52986,-0.11237 -0.71594,-0.32851c-0.18632,-0.21614 -0.26195,-0.4757 -0.22067,-0.7584l2.72777,-18.74728h-1.79092c-0.52151,0 -0.94663,-0.42656 -0.94663,-0.9495v-3.57778c0,-0.52318 0.42513,-0.94973 0.94663,-0.94973h5.01419zM3.2745,2.58732c0,1.69645 0,3.39266 0,5.0891c7.1496,0 14.29944,0 21.44904,0c0,-1.69931 0,-3.39862 0,-5.09769c-7.13242,0.86814 -14.31996,0.92588 -21.44904,0.00859zM2.37248,24.03756v1.67855h23.25284v-1.67855zM5.13007,27.61534l-1.68953,11.61342l2.73087,-11.61342zM21.82638,27.61534l2.73087,11.61342l-1.68953,-11.61342z" fill="#969696" fill-opacity="1"></path></g></g></g></svg>