<?xml version="1.0" encoding="UTF-8"?>
<svg id="SVGDoc" width="62" height="62" xmlns="http://www.w3.org/2000/svg" version="1.1" xmlns:xlink="http://www.w3.org/1999/xlink" xmlns:avocode="https://avocode.com/" viewBox="0 0 62 62"><defs></defs><desc>Generated with Avocode.</desc><g><g><title>e2079b9075b5918b07311bf1aef8feee</title><g><title>Path 33</title><path d="M61,60h-2c-0.6,0 -1,0.4 -1,1c0,0.6 0.4,1 1,1h2c0.6,0 1,-0.4 1,-1c0,-0.6 -0.4,-1 -1,-1z" fill="#969696" fill-opacity="1"></path></g><g><title>Path 34</title><path d="M55,60h-15.1c-0.5,-2.3 -2.5,-4 -4.9,-4h-1v0v-31.9c0,-0.6 -0.4,-1 -1,-1c-0.6,0 -1,0.4 -1,1v31.9v0h-2v0v-3c0,-0.6 -0.4,-1 -1,-1c-0.6,0 -1,0.4 -1,1v3v0h-1c-2.4,0 -4.4,1.7 -4.9,4h-3.1c-0.6,0 -1,0.4 -1,1c0,0.6 0.4,1 1,1h12c0.6,0 1,-0.4 1,-1c0,-0.6 -0.4,-1 -1,-1h-6.8c0.4,-1.2 1.5,-2 2.8,-2h8c1.3,0 2.4,0.8 2.8,2h-2.8c-0.6,0 -1,0.4 -1,1c0,0.6 0.4,1 1,1h20c0.6,0 1,-0.4 1,-1c0,-0.6 -0.4,-1 -1,-1z" fill="#969696" fill-opacity="1"></path></g><g><title>Path 35</title><path d="M15,60h-14c-0.6,0 -1,0.4 -1,1c0,0.6 0.4,1 1,1h14c0.6,0 1,-0.4 1,-1c0,-0.6 -0.4,-1 -1,-1z" fill="#969696" fill-opacity="1"></path></g><g><title>Path 36</title><path d="M38,22v0v2.2c-1.2,0.5 -2,2 -2,3.8c0,2.2 1.3,4 3,4c1.7,0 3,-1.8 3,-4c0,-0.6 -0.4,-1 -1,-1c-0.6,0 -1,0.4 -1,1c0,1.2 -0.6,2 -1,2c-0.4,0 -1,-0.8 -1,-2c0,-1.2 0.6,-2 1,-2c0.1,0 1.1,0.7 1.6,-0.2c0.5,-0.9 -0.5,-1.5 -0.6,-1.5v-2.3v0h3.9c1,0 2,-0.5 2.5,-1.3c0.6,-0.8 0.7,-1.9 0.4,-2.9l-2.8,-7.2c-0.2,-0.5 -0.8,-0.8 -1.3,-0.6c-0.5,0.2 -0.8,0.8 -0.6,1.3l2.8,7.1c0.1,0.4 0.2,1.6 -1.1,1.6h-25.7c-1,0.1 -1.2,-1.2 -1.1,-1.5l6.1,-15.3c0.3,-0.7 1.1,-1.2 1.9,-1.2h12.1c0.8,0 1.4,0.4 1.8,1.2c0.2,0.5 0.8,0.7 1.3,0.5c0.5,-0.2 0.7,-0.8 0.5,-1.3c-0.7,-1.5 -2,-2.4 -3.6,-2.4h-12.1c-1.6,0 -3.1,0.9 -3.7,2.4l-6.1,15.3c-0.3,1 -0.2,2.1 0.4,2.9c0.6,0.8 1.5,1.3 2.5,1.3h19.9v0z" fill="#969696" fill-opacity="1"></path></g><g><title>Path 37</title><path d="M40.1,6.2l0.6,1.4c0.3,0.9 1.2,0.6 1.3,0.6c0.5,-0.2 0.8,-0.8 0.6,-1.3l-0.6,-1.4c-0.2,-0.5 -0.8,-0.8 -1.3,-0.6c-0.6,0.2 -0.8,0.8 -0.6,1.3z" fill="#969696" fill-opacity="1"></path></g><g><title>Path 38</title><path d="M28,24.1v24.9c0,0.6 0.4,1 1,1c0.6,0 1,-0.4 1,-1v-24.9c0,-0.6 -0.4,-1 -1,-1c-0.6,0 -1,0.5 -1,1z" fill="#969696" fill-opacity="1"></path></g><g><title>Path 39</title><path d="M30,5v12c0,0.6 0.4,1 1,1c0.6,0 1,-0.4 1,-1v-12c0,-0.6 -0.4,-1 -1,-1c-0.6,0 -1,0.4 -1,1z" fill="#969696" fill-opacity="1"></path></g><g><title>Path 40</title><path d="M24,14.1c-0.5,-0.2 -1.1,0.1 -1.3,0.6l-0.7,2c-0.2,0.5 0.1,1.1 0.6,1.3c0.1,0 1.1,0.2 1.3,-0.6l0.7,-2c0.2,-0.6 -0.1,-1.2 -0.6,-1.3z" fill="#969696" fill-opacity="1"></path></g><g><title>Path 41</title><path d="M25.9,11.3l2,-6c0.2,-0.5 -0.1,-1.1 -0.6,-1.3c-0.5,-0.2 -1.1,0.1 -1.3,0.6l-2,6c-0.2,0.5 0.1,1.1 0.6,1.3c0.2,0.1 1,0.3 1.3,-0.6z" fill="#969696" fill-opacity="1"></path></g><g><title>Path 42</title><path d="M34.7,4.1c-0.5,0.2 -0.8,0.7 -0.6,1.3l4,12c0.3,1 1.2,0.7 1.3,0.6c0.5,-0.2 0.8,-0.7 0.6,-1.3l-4,-12c-0.2,-0.5 -0.8,-0.8 -1.3,-0.6z" fill="#969696" fill-opacity="1"></path></g><g><title>Path 43</title><path d="M54.9,19h4c0.6,0 1,-0.4 1,-1c0,-0.6 -0.4,-1 -1,-1h-4c-0.6,0 -1,0.4 -1,1c0,0.6 0.4,1 1,1z" fill="#969696" fill-opacity="1"></path></g><g><title>Path 44</title><path d="M49.7,4.5l2.8,-2.8c0.4,-0.4 0.4,-1 0,-1.4c-0.4,-0.4 -1,-0.4 -1.4,0l-2.8,2.8c-0.4,0.4 -0.4,1 0,1.4c0.2,0.2 0.8,0.5 1.4,0z" fill="#969696" fill-opacity="1"></path></g><g><title>Path 45</title><path d="M12.3,4.5c0.2,0.2 0.9,0.5 1.4,0c0.4,-0.4 0.4,-1 0,-1.4l-2.8,-2.8c-0.4,-0.4 -1,-0.4 -1.4,0c-0.4,0.4 -0.4,1 0,1.4z" fill="#969696" fill-opacity="1"></path></g><g><title>Path 46</title><path d="M3.1,19h4c0.6,0 1,-0.4 1,-1c0,-0.6 -0.4,-1 -1,-1h-4c-0.6,0 -1,0.4 -1,1c0,0.6 0.4,1 1,1z" fill="#969696" fill-opacity="1"></path></g><g><title>Path 47</title><path d="M10.9,35.6l2.8,-2.8c0.4,-0.4 0.4,-1 0,-1.4c-0.4,-0.4 -1,-0.4 -1.4,0l-2.8,2.8c-0.4,0.4 -0.4,1 0,1.4c0.2,0.2 0.9,0.5 1.4,0z" fill="#969696" fill-opacity="1"></path></g><g><title>Path 48</title><path d="M51.1,35.6c0.4,0.5 1.2,0.2 1.4,0c0.4,-0.4 0.4,-1 0,-1.4l-2.8,-2.8c-0.4,-0.4 -1,-0.4 -1.4,0c-0.4,0.4 -0.4,1 0,1.4z" fill="#969696" fill-opacity="1"></path></g></g></g></svg>